<?xml version="1.0"?>
<!-- Created by MetaPost 2.00 on 2023.06.16:1618 -->
<svg version="1.1" xmlns="http://www.w3.org/2000/svg" xmlns:xlink="http://www.w3.org/1999/xlink" width="170.578705" height="50.734497" viewBox="0 0 170.578705 50.734497">
<!-- Original BoundingBox: -0.250000 -30.767776 170.328705 19.966721 -->
  <path d="M0.000000 19.000000C44.362610 -25.362610,110.415298 19.000000,170.078705 19.000000" style="stroke:rgb(0.000000%,0.000000%,0.000000%); stroke-width: 0.500000;stroke-linecap: round;stroke-linejoin: round;stroke-miterlimit: 10.000000;fill: none;"></path>
  <path d="M0.000000 19.000000C45.576401 -26.576401,112.468735 29.158066,170.078705 19.000000" style="stroke:rgb(0.000000%,0.000000%,0.000000%); stroke-width: 0.500000;stroke-linecap: round;stroke-linejoin: round;stroke-miterlimit: 10.000000;fill: none;"></path>
  <path d="M0.000000 19.000000C46.708389 -27.708389,115.175613 38.983322,170.078705 19.000000" style="stroke:rgb(0.000000%,0.000000%,0.000000%); stroke-width: 0.500000;stroke-linecap: round;stroke-linejoin: round;stroke-miterlimit: 10.000000;fill: none;"></path>
  <path d="M0.000000 19.000000C47.401062 -28.401062,118.142700 48.985168,170.078705 19.000000" style="stroke:rgb(0.000000%,0.000000%,0.000000%); stroke-width: 0.500000;stroke-linecap: round;stroke-linejoin: round;stroke-miterlimit: 10.000000;fill: none;"></path>
  <path d="M0.000000 19.000000C47.346359 -28.346359,121.327118 59.908112,170.078705 19.000000" style="stroke:rgb(0.000000%,0.000000%,0.000000%); stroke-width: 0.500000;stroke-linecap: round;stroke-linejoin: round;stroke-miterlimit: 10.000000;fill: none;"></path>
  <path d="M0.000000 19.000000C46.326050 -27.326050,125.150650 72.542297,170.078705 19.000000" style="stroke:rgb(0.000000%,0.000000%,0.000000%); stroke-width: 0.500000;stroke-linecap: round;stroke-linejoin: round;stroke-miterlimit: 10.000000;fill: none;"></path>
  <path d="M0.000000 19.000000C44.250824 -25.250824,130.533890 87.493835,170.078705 19.000000" style="stroke:rgb(0.000000%,0.000000%,0.000000%); stroke-width: 0.500000;stroke-linecap: round;stroke-linejoin: round;stroke-miterlimit: 10.000000;fill: none;"></path>
  <path d="M0.000000 19.000000C41.195404 -22.195404,138.809738 104.909775,170.078705 19.000000" style="stroke:rgb(0.000000%,0.000000%,0.000000%); stroke-width: 0.500000;stroke-linecap: round;stroke-linejoin: round;stroke-miterlimit: 10.000000;fill: none;"></path>
</svg>
